<svg version="1.2" baseProfile="tiny-ps" xmlns="http://www.w3.org/2000/svg" viewBox="0 0 512 512" width="512" height="512">
	<title>farmer-svg</title>
	<style>
		tspan { white-space:pre }
		.shp0 { fill: #000000 } 
	</style>
	<g id="Layer">
		<g id="Layer">
			<g id="Layer">
				<path id="Layer" class="shp0" d="M175.72 440C171.52 440 168.13 436.61 168.13 432.41C168.13 428.22 171.52 424.83 175.72 424.83C179.91 424.83 183.3 428.22 183.3 432.41C183.3 436.61 179.91 440 175.72 440Z" />
				<path id="Layer" class="shp0" d="M336.28 440C332.09 440 328.7 436.61 328.7 432.41C328.7 428.22 332.09 424.83 336.28 424.83C340.48 424.83 343.87 428.22 343.87 432.41C343.87 436.61 340.48 440 336.28 440Z" />
			</g>
		</g>
		<path id="Layer" fill-rule="evenodd" class="shp0" d="M439.89 350.34C451.57 365.95 457.75 384.51 457.75 404.01L457.75 487.25C457.75 500.9 446.64 512 432.99 512L79 512C65.36 512 54.25 500.9 54.25 487.25L54.25 404.01C54.25 384.51 60.43 365.95 72.11 350.34C85.9 331.9 107.32 319.95 119.39 317.86L134.18 315.29C135.65 310.08 139.97 306.01 145.54 305.05L166.42 301.42C170.6 300.69 174.86 301.85 178.11 304.58C179.01 305.34 179.8 306.21 180.48 307.14L200.33 303.79C201.89 301.09 202.82 297.95 202.82 295.14L202.82 282.47C198.41 279.66 194.13 276.5 189.99 272.94C172.78 258.12 161.96 236.71 159.66 213.36C147.05 212.86 136.94 202.45 136.94 189.72L136.94 180.78C136.94 173.56 140.19 166.89 145.65 162.45L145.65 142.45L136.57 142.45C115.14 142.45 97.7 125.01 97.7 103.58C97.7 97.73 102.47 92.96 108.32 92.96L144.33 92.96L150.31 49.51C154.83 16.69 185.96 -5.27 218.2 1.11C243.28 6.08 268.72 6.08 293.8 1.11C326.36 -5.33 357.21 17.01 361.69 49.51L367.67 92.96L403.68 92.96C409.53 92.96 414.3 97.73 414.3 103.58C414.3 125.01 396.86 142.45 375.43 142.45L366.35 142.45L366.35 162.45C371.81 166.89 375.06 173.56 375.06 180.78L375.06 189.72C375.06 202.45 364.95 212.86 352.34 213.36C350.04 236.71 339.22 258.12 322 272.94C317.87 276.5 313.59 279.66 309.18 282.47L309.18 295.14C309.18 297.95 310.11 301.09 311.67 303.79L331.52 307.14C332.2 306.21 332.99 305.34 333.89 304.58C337.14 301.85 341.4 300.7 345.58 301.42L366.46 305.05C372.02 306.01 376.35 310.08 377.81 315.29L392.61 317.86C405.52 320.09 426.69 332.69 439.89 350.34ZM364.79 416.8C364.11 413.79 361.3 411.6 358.12 411.6L154.19 411.6C150.91 411.6 148.02 413.89 147.31 417.04C145.2 426.45 140.84 434.81 134.37 441.89C127.7 449.18 124.02 458.64 124.02 468.53L124.02 497L387.98 497L387.98 468.53C387.98 458.64 384.3 449.18 377.63 441.89C371.39 435.06 366.95 426.38 364.79 416.8ZM328.78 396.6L328.78 340.66L320.25 353.66C312.73 365.13 299.94 371.8 286.61 371.8C278.96 371.8 275.45 369.97 256 365.58C236.47 369.99 233.04 371.8 225.39 371.8C212.06 371.8 199.27 365.13 191.75 353.66L183.22 340.66L183.22 396.6L328.78 396.6ZM323.72 321.04L309.66 318.66L271.43 353.86L280.78 356.1C291.07 358.58 301.9 354.29 307.71 345.44L323.72 321.04ZM174.21 205.72C174.68 227.63 184 247.99 199.78 261.57C233.19 290.34 278.82 290.33 312.22 261.57C328 247.99 337.32 227.63 337.79 205.72C337.87 201.64 341.2 198.38 345.28 198.38L351.4 198.38C356.17 198.38 360.06 194.49 360.06 189.72L360.06 180.78C360.06 178.12 358.83 175.66 356.79 174.04C353.45 174.33 346.39 175.49 341.69 180.15C335.15 186.62 323.98 181.98 323.98 172.73L323.98 142.45L188.03 142.45L188.03 172.73C188.03 181.99 176.85 186.61 170.32 180.15C165.61 175.49 158.57 174.33 155.21 174.04C153.17 175.67 151.94 178.12 151.94 180.78L151.94 189.72C151.94 194.49 155.83 198.38 160.6 198.38L166.72 198.38C170.8 198.38 174.13 201.64 174.21 205.72ZM113.1 107.96C115.16 119.04 124.9 127.45 136.56 127.45C150.01 127.45 366.96 127.45 375.43 127.45C387.1 127.45 396.84 119.04 398.9 107.96L361.13 107.96C361.13 107.96 361.12 107.96 361.12 107.96C361.11 107.96 361.11 107.96 361.1 107.96L209.54 107.96C205.4 107.96 202.04 104.6 202.04 100.46C202.04 96.32 205.4 92.96 209.54 92.96L352.53 92.96L346.83 51.55C343.5 27.38 320.57 11.1 296.71 15.82C269.7 21.17 242.3 21.17 215.29 15.82C191.4 11.09 168.5 27.41 165.17 51.55L159.47 92.96L174.58 92.96C178.72 92.96 182.08 96.32 182.08 100.46C182.08 104.6 178.72 107.96 174.58 107.96L113.1 107.96ZM160.65 142.45L160.65 159.66C164.24 160.3 168.68 161.51 173.02 163.8L173.02 142.45L160.65 142.45ZM351.35 142.45L338.98 142.45L338.98 163.8C343.32 161.51 347.76 160.3 351.35 159.66L351.35 142.45ZM217.82 290.37L217.82 295.14C217.82 299.94 216.6 304.87 214.38 309.35L256 347.67L297.63 309.35C295.4 304.87 294.18 299.94 294.18 295.14L294.18 290.37C269.3 300.87 242.22 300.67 217.82 290.37ZM188.28 321.04L204.29 345.44C216.52 364.07 237.84 353.89 240.57 353.86L202.34 318.66L188.28 321.04ZM148.65 319.73L148.65 397.3C150.42 396.85 152.28 396.6 154.19 396.6L168.22 396.6L168.22 316.33L148.65 319.73ZM69.25 487.25C69.25 492.62 73.63 497 79 497L109.02 497L109.02 468.53C109.02 454.89 114.09 441.83 123.3 431.76C127.99 426.64 131.14 420.58 132.68 413.75C132.92 412.66 133.26 411.61 133.65 410.6L133.65 330.61L122.39 332.56C106.98 337.19 93.76 346.43 84.12 359.32C74.39 372.32 69.25 387.78 69.25 404.01L69.25 487.25ZM442.75 404.01C442.75 387.78 437.61 372.32 427.88 359.32C418.24 346.43 405.02 337.19 389.61 332.56L378.35 330.61L378.35 346.82C378.35 350.96 374.99 354.32 370.85 354.32C366.71 354.32 363.35 350.96 363.35 346.82L363.35 319.73L343.78 316.33L343.78 396.6L358.12 396.6C359.91 396.6 361.66 396.84 363.35 397.26L363.35 381.79C363.35 377.64 366.71 374.29 370.85 374.29C374.99 374.29 378.35 377.64 378.35 381.79L378.35 410.15C378.79 411.23 379.16 412.34 379.42 413.5C381.03 420.64 384.15 426.79 388.7 431.76C397.91 441.83 402.98 454.89 402.98 468.53L402.98 497L433 497C438.37 497 442.75 492.63 442.75 487.25L442.75 404.01Z" />
	</g>
</svg>