<svg version="1.2" baseProfile="tiny-ps" xmlns="http://www.w3.org/2000/svg" viewBox="0 0 1000 1000" width="1000" height="1000">
	<title>instagram-svg</title>
	<style>
		tspan { white-space:pre }
		.shp0 { fill: #000000 } 
	</style>
	<path id="Layer" fill-rule="evenodd" class="shp0" d="M993.7 289.6L993.7 709.4C993.7 866.3 866 994 709.1 994L289.3 994C132.4 994 4.7 866.3 4.7 709.4L4.7 289.6C4.7 132.7 132.4 5 289.3 5L709.1 5C866.1 5 993.7 132.7 993.7 289.6ZM895.7 709.4L895.7 289.6C895.7 186.7 812 103 709.1 103L289.3 103C186.4 103 102.7 186.7 102.7 289.6L102.7 709.4C102.7 812.3 186.4 896 289.3 896L709.1 896C812 896 895.8 812.3 895.8 709.4L895.7 709.4ZM755.9 499.5C755.9 641 640.8 756.2 499.2 756.2C357.6 756.2 242.4 641.1 242.4 499.5C242.4 357.9 357.6 242.7 499.2 242.7C640.8 242.7 756 357.9 755.9 499.5ZM658 499.5C658 411.9 586.8 340.7 499.2 340.7C411.6 340.7 340.4 411.9 340.4 499.5C340.4 587.1 411.6 658.3 499.2 658.3C586.8 658.3 658 587.1 658 499.5ZM826.7 235.7C826.7 272.8 796.5 302.9 759.5 302.9C722.4 302.9 692.3 272.7 692.3 235.7C692.3 198.6 722.5 168.5 759.5 168.5C796.5 168.5 826.7 198.6 826.7 235.7Z" />
</svg>