<svg version="1.2" baseProfile="tiny-ps" xmlns="http://www.w3.org/2000/svg" viewBox="0 0 512 512" width="512" height="512">
	<title>planting-svg</title>
	<style>
		tspan { white-space:pre }
		.shp0 { fill: #000000 } 
	</style>
	<g id="Layer">
		<path id="Layer" fill-rule="evenodd" class="shp0" d="M487.84 364.36C494.81 375.16 493.06 389.86 483.76 398.56C482.98 399.29 488.32 395.49 399.3 456.77C391.94 461.83 383.43 464.97 374.67 465.87L253.58 478.3C245.22 479.15 236.86 477.94 229.31 475.02L168.7 455.54C163.84 453.97 158.46 455.11 154.64 458.49L141.49 470.16C147.02 480.35 143.46 493.19 133.36 499.03L115.89 509.11C105.58 515.06 92.45 511.51 86.52 501.24L22.78 390.84C16.85 380.57 20.38 367.4 30.64 361.47L48.12 351.38C56.81 346.36 67.46 348.1 74.17 354.92L128.06 324.7C149.11 312.9 174.04 309.98 196.46 316.7C198.76 317.39 201.5 318.3 204.53 319.37C231.2 303.97 260.75 295.74 290.45 294.5C288.6 284.48 283.56 271.08 270.66 258.18C266.87 259.22 252.54 259.59 248.13 259.59C171.37 259.59 126.3 212.49 114.6 152.9C113.04 144.96 119.79 137.87 128.17 137.95C201.67 139.35 271.13 170.91 280.33 244.55C280.42 245.28 280.44 246 280.39 246.72C284.52 250.74 288 254.82 290.94 258.88L290.94 197.74C258.41 168.12 248.26 129.07 256.26 85.46C263 48.71 281.21 17.2 288.72 5.37C293.39 -1.99 303.76 -1.59 308.18 5.37C308.18 5.37 308.18 5.37 308.18 5.37C315.69 17.2 333.9 48.71 340.64 85.46C348.66 129.18 338.42 168.19 305.94 197.76L305.94 260.15C309.06 255.67 312.84 251.16 317.39 246.72C317.35 246 317.36 245.28 317.45 244.55C326.67 170.8 396.09 139.36 469.61 137.95C477.92 137.85 484.75 144.91 483.18 152.9C480.75 165.31 472.38 196.93 447.34 222.41C444.44 225.36 439.69 225.4 436.74 222.5C433.78 219.6 433.74 214.85 436.64 211.89C453.39 194.86 461.74 174.61 465.76 160.94C442.38 174.06 389.75 205.19 342.74 244.45C368.77 245.36 391.46 240.95 410.3 231.27C413.98 229.38 418.5 230.83 420.4 234.51C422.29 238.2 420.84 242.72 417.16 244.61C397.78 254.57 375.04 259.58 349.35 259.58C344.97 259.58 330.94 259.23 327.13 258.18C314.25 271.07 309.22 284.51 307.37 294.55C345.97 296.39 383.97 310.02 415.36 335.05L446.85 360.17L452.94 356.97C464.48 349.15 480.07 352.31 487.84 364.36ZM446.63 154.61C409.5 159.11 351.15 175.19 335.43 231.03C375.93 197.55 420.01 170.1 446.63 154.61ZM151.27 154.67C177.9 170.18 221.93 197.61 262.38 231.05C248.71 182.29 201.28 160.87 151.27 154.67ZM255.05 244.46C208.03 205.18 155.37 174.04 132 160.92C140.74 190.89 168.74 247.47 255.05 244.46ZM325.89 88.16C321.86 66.2 313.37 46.17 305.94 31.71L305.94 176.18C325.6 152.73 332.32 123.21 325.89 88.16ZM290.94 176.16L290.94 31.74C283.52 46.19 275.04 66.21 271.01 88.16C264.59 123.2 271.3 152.71 290.94 176.16ZM406.01 346.78C353.93 305.25 282.13 297.84 222.87 326.62C252.39 339.43 254.99 347.79 274.06 350.66L334.25 357.97C334.32 357.97 334.38 357.98 334.45 357.99C351.03 360.46 363.75 374.33 365.4 391.72C365.43 392.1 365.44 392.49 365.42 392.87L365.24 395.8C377.12 394.38 388.57 390.8 399.39 385.12L432.35 367.79L406.01 346.78ZM473.86 387.27C477.63 383.41 478.25 377.15 475.24 372.5C472.01 367.49 465.8 366.24 461.16 369.52C460.4 370.06 463.63 368.27 406.37 398.39C373.52 415.66 355.59 409.52 274.61 416.84C274.45 416.85 274.28 416.86 274.12 416.86C270.2 416.86 266.9 413.81 266.64 409.84C266.37 405.71 269.5 402.14 273.63 401.87L350.15 396.87L350.41 392.58C349.22 382.37 341.86 374.31 332.33 372.84L272.14 365.53C272.08 365.53 272.01 365.52 271.94 365.51C244.32 361.39 238.72 345.01 192.16 331.07C173.61 325.52 152.92 327.96 135.4 337.79L82.29 367.57L92.01 384.42C94.09 388 92.86 392.59 89.27 394.66C85.68 396.73 81.1 395.5 79.02 391.92L64.5 366.76C62.71 363.66 58.74 362.57 55.62 364.38L38.15 374.46C35.04 376.25 33.98 380.24 35.77 383.34L99.51 493.74C101.3 496.85 105.27 497.92 108.39 496.12L125.86 486.04C128.96 484.24 130.03 480.26 128.24 477.16C119.77 462.5 100.75 429.55 96.59 422.35C94.52 418.76 95.75 414.17 99.34 412.1C102.92 410.03 107.51 411.26 109.58 414.85L133.85 456.88L144.68 447.27C152.45 440.38 163.41 438.08 173.29 441.25L234.12 460.81C238.64 462.26 243.77 464.23 252.05 463.38L373.14 450.95C379.4 450.31 385.51 448.05 390.8 444.41L473.86 387.27Z" />
	</g>
</svg>