<svg version="1.2" baseProfile="tiny-ps" xmlns="http://www.w3.org/2000/svg" viewBox="0 0 1000 1000" width="1000" height="1000">
	<title>youtube-play-svg</title>
	<style>
		tspan { white-space:pre }
		.shp0 { fill: #000000 } 
	</style>
	<path id="Layer" fill-rule="evenodd" class="shp0" d="M999.6 548.4C999.4 570.8 998.3 593.3 997.1 615.7C996.2 633.1 994.5 650.6 993.1 668.1C990.6 699 985.3 729.3 974 758.4C957.5 801.1 926.3 826.5 882.2 836C868.3 839 853.9 840 839.7 841.1C817.1 842.9 794.4 844 771.7 845.3C764.9 845.7 758 846 751.2 846.2C730.5 846.8 709.9 847.5 689.2 847.9C638.8 848.9 588.4 850.2 538 850.6C497.9 850.9 457.6 850.2 417.4 849.8C394.5 849.6 371.6 849.1 348.7 848.7C324 848.3 299.3 847.7 274.6 847C258.8 846.6 243 846 227.3 845.3C208.2 844.4 189.1 843.8 170.1 842C146.6 839.8 122.9 837.7 100.2 830.1C64.5 818.1 39.4 794.8 26 759.3C18.7 740.1 13.3 720.4 10.1 700.1C8.2 688.3 7.5 676.3 6.5 664.4C5.1 648.4 3.7 632.3 2.5 616.2C1.7 605 0.9 593.7 0.8 582.4C0.3 537.3 0 492.1 0 447C0 431.1 0.7 415.2 1.7 399.3C2.8 379.9 3.9 360.4 5.9 341C7.9 321.8 10 302.6 13.5 283.7C17.8 260.5 24.8 237.9 37.5 217.7C55 190.2 80.4 172.9 111.9 165.3C126.2 161.8 141.2 160.5 155.9 159.2C177.8 157.3 199.8 156.3 221.8 155C228.5 154.6 235.2 154.3 241.9 154.1C263.1 153.5 284.3 152.8 305.5 152.4C355.8 151.4 406 150.1 456.3 149.7C505.9 149.3 555.5 149.8 605.1 150.1C630.3 150.3 655.6 151 680.9 151.7C706.7 152.4 732.5 153.3 758.3 154.3C775.5 154.9 792.6 155.7 809.7 156.8C828.3 157.9 847 159.1 865.5 161C900.6 164.7 930.6 179 953.9 205.9C964.5 218.1 971.5 232.6 976.2 247.9C981.4 264.9 985.9 282.2 989.5 299.7C991.9 311.3 992.1 323.4 993.2 335.3C994.3 347.2 995.5 359.1 996.4 371C997.1 380.6 997.8 390.2 998.1 399.8C998.4 409.6 998.2 419.3 998.2 429.1L999.9 429.1C999.9 468.9 1000.2 508.7 999.6 548.4ZM666.7 490C576.3 442.8 486.7 396.1 396.6 349.2L396.6 629.9C486.9 583.1 576.5 536.7 666.7 490Z" />
</svg>